<mxfile host="Electron" modified="2024-04-30T13:43:02.005Z" agent="Mozilla/5.0 (Windows NT 10.0; Win64; x64) AppleWebKit/537.36 (KHTML, like Gecko) draw.io/24.2.5 Chrome/120.0.6099.109 Electron/28.1.0 Safari/537.36" etag="6NDvIgB9_CJxX7hvcY8z" version="24.2.5" type="device">
  <diagram name="Page-1" id="kxO9TPAkSQEVdeGklk3y">
    <mxGraphModel dx="1042" dy="614" grid="0" gridSize="10" guides="1" tooltips="1" connect="1" arrows="1" fold="1" page="1" pageScale="1" pageWidth="850" pageHeight="1100" math="0" shadow="0">
      <root>
        <mxCell id="0" />
        <mxCell id="1" parent="0" />
        <mxCell id="sWJx52MosCOyNt7yGAOG-10" value="User" style="swimlane;fontStyle=1;align=center;verticalAlign=top;childLayout=stackLayout;horizontal=1;startSize=26;horizontalStack=0;resizeParent=1;resizeParentMax=0;resizeLast=0;collapsible=1;marginBottom=0;whiteSpace=wrap;html=1;" vertex="1" parent="1">
          <mxGeometry x="60" y="65" width="160" height="138" as="geometry" />
        </mxCell>
        <mxCell id="sWJx52MosCOyNt7yGAOG-11" value="+ id: int64&lt;div&gt;+ username: string&lt;br&gt;&lt;/div&gt;&lt;div&gt;+ email: string&lt;br&gt;&lt;/div&gt;&lt;div&gt;+ password: string&lt;br&gt;&lt;/div&gt;&lt;div&gt;+ registeredAt: time.Time&lt;br&gt;&lt;/div&gt;&lt;div&gt;+ LastVisitAt: time.time&lt;br&gt;&lt;/div&gt;" style="text;strokeColor=none;fillColor=none;align=left;verticalAlign=top;spacingLeft=4;spacingRight=4;overflow=hidden;rotatable=0;points=[[0,0.5],[1,0.5]];portConstraint=eastwest;whiteSpace=wrap;html=1;" vertex="1" parent="sWJx52MosCOyNt7yGAOG-10">
          <mxGeometry y="26" width="160" height="104" as="geometry" />
        </mxCell>
        <mxCell id="sWJx52MosCOyNt7yGAOG-12" value="" style="line;strokeWidth=1;fillColor=none;align=left;verticalAlign=middle;spacingTop=-1;spacingLeft=3;spacingRight=3;rotatable=0;labelPosition=right;points=[];portConstraint=eastwest;strokeColor=inherit;" vertex="1" parent="sWJx52MosCOyNt7yGAOG-10">
          <mxGeometry y="130" width="160" height="8" as="geometry" />
        </mxCell>
        <mxCell id="sWJx52MosCOyNt7yGAOG-14" value="Person" style="swimlane;fontStyle=1;align=center;verticalAlign=top;childLayout=stackLayout;horizontal=1;startSize=26;horizontalStack=0;resizeParent=1;resizeParentMax=0;resizeLast=0;collapsible=1;marginBottom=0;whiteSpace=wrap;html=1;" vertex="1" parent="1">
          <mxGeometry x="280" y="50" width="160" height="168" as="geometry">
            <mxRectangle x="300" y="165" width="80" height="30" as="alternateBounds" />
          </mxGeometry>
        </mxCell>
        <mxCell id="sWJx52MosCOyNt7yGAOG-15" value="+ id: int64&lt;div&gt;+ name: string&lt;br&gt;&lt;/div&gt;&lt;div&gt;+ surname: string&lt;br&gt;&lt;/div&gt;&lt;div&gt;+ birthDate: time.Date&lt;br&gt;&lt;/div&gt;&lt;div&gt;+ phone: string&lt;/div&gt;&lt;div&gt;+ address:string&lt;/div&gt;&lt;div&gt;+ photo: []byte&lt;/div&gt;&lt;div&gt;+ notes: string&lt;/div&gt;&lt;div&gt;+ user: user&lt;/div&gt;" style="text;strokeColor=none;fillColor=none;align=left;verticalAlign=top;spacingLeft=4;spacingRight=4;overflow=hidden;rotatable=0;points=[[0,0.5],[1,0.5]];portConstraint=eastwest;whiteSpace=wrap;html=1;" vertex="1" parent="sWJx52MosCOyNt7yGAOG-14">
          <mxGeometry y="26" width="160" height="134" as="geometry" />
        </mxCell>
        <mxCell id="sWJx52MosCOyNt7yGAOG-16" value="" style="line;strokeWidth=1;fillColor=none;align=left;verticalAlign=middle;spacingTop=-1;spacingLeft=3;spacingRight=3;rotatable=0;labelPosition=right;points=[];portConstraint=eastwest;strokeColor=inherit;" vertex="1" parent="sWJx52MosCOyNt7yGAOG-14">
          <mxGeometry y="160" width="160" height="8" as="geometry" />
        </mxCell>
        <mxCell id="sWJx52MosCOyNt7yGAOG-17" value="Employee" style="swimlane;fontStyle=1;align=center;verticalAlign=top;childLayout=stackLayout;horizontal=1;startSize=26;horizontalStack=0;resizeParent=1;resizeParentMax=0;resizeLast=0;collapsible=1;marginBottom=0;whiteSpace=wrap;html=1;" vertex="1" parent="1">
          <mxGeometry x="480" y="75" width="160" height="118" as="geometry">
            <mxRectangle x="300" y="165" width="80" height="30" as="alternateBounds" />
          </mxGeometry>
        </mxCell>
        <mxCell id="sWJx52MosCOyNt7yGAOG-18" value="+ id: int64&lt;div&gt;+ title: string&lt;br&gt;&lt;/div&gt;&lt;div&gt;+ salary: string&lt;br&gt;&lt;/div&gt;&lt;div&gt;+ hireDate: time.Date&lt;br&gt;&lt;/div&gt;&lt;div&gt;+ person: person&lt;/div&gt;" style="text;strokeColor=none;fillColor=none;align=left;verticalAlign=top;spacingLeft=4;spacingRight=4;overflow=hidden;rotatable=0;points=[[0,0.5],[1,0.5]];portConstraint=eastwest;whiteSpace=wrap;html=1;" vertex="1" parent="sWJx52MosCOyNt7yGAOG-17">
          <mxGeometry y="26" width="160" height="84" as="geometry" />
        </mxCell>
        <mxCell id="sWJx52MosCOyNt7yGAOG-19" value="" style="line;strokeWidth=1;fillColor=none;align=left;verticalAlign=middle;spacingTop=-1;spacingLeft=3;spacingRight=3;rotatable=0;labelPosition=right;points=[];portConstraint=eastwest;strokeColor=inherit;" vertex="1" parent="sWJx52MosCOyNt7yGAOG-17">
          <mxGeometry y="110" width="160" height="8" as="geometry" />
        </mxCell>
        <mxCell id="sWJx52MosCOyNt7yGAOG-20" value="Teacher" style="swimlane;fontStyle=1;align=center;verticalAlign=top;childLayout=stackLayout;horizontal=1;startSize=26;horizontalStack=0;resizeParent=1;resizeParentMax=0;resizeLast=0;collapsible=1;marginBottom=0;whiteSpace=wrap;html=1;" vertex="1" parent="1">
          <mxGeometry x="660" y="75" width="160" height="78" as="geometry">
            <mxRectangle x="300" y="165" width="80" height="30" as="alternateBounds" />
          </mxGeometry>
        </mxCell>
        <mxCell id="sWJx52MosCOyNt7yGAOG-21" value="+ id: int64&lt;div&gt;+ employee: employee&lt;/div&gt;" style="text;strokeColor=none;fillColor=none;align=left;verticalAlign=top;spacingLeft=4;spacingRight=4;overflow=hidden;rotatable=0;points=[[0,0.5],[1,0.5]];portConstraint=eastwest;whiteSpace=wrap;html=1;" vertex="1" parent="sWJx52MosCOyNt7yGAOG-20">
          <mxGeometry y="26" width="160" height="44" as="geometry" />
        </mxCell>
        <mxCell id="sWJx52MosCOyNt7yGAOG-22" value="" style="line;strokeWidth=1;fillColor=none;align=left;verticalAlign=middle;spacingTop=-1;spacingLeft=3;spacingRight=3;rotatable=0;labelPosition=right;points=[];portConstraint=eastwest;strokeColor=inherit;" vertex="1" parent="sWJx52MosCOyNt7yGAOG-20">
          <mxGeometry y="70" width="160" height="8" as="geometry" />
        </mxCell>
        <mxCell id="sWJx52MosCOyNt7yGAOG-52" value="Student" style="swimlane;fontStyle=1;align=center;verticalAlign=top;childLayout=stackLayout;horizontal=1;startSize=26;horizontalStack=0;resizeParent=1;resizeParentMax=0;resizeLast=0;collapsible=1;marginBottom=0;whiteSpace=wrap;html=1;" vertex="1" parent="1">
          <mxGeometry x="650" y="218" width="160" height="98" as="geometry">
            <mxRectangle x="300" y="165" width="80" height="30" as="alternateBounds" />
          </mxGeometry>
        </mxCell>
        <mxCell id="sWJx52MosCOyNt7yGAOG-53" value="+ id: int64&lt;div&gt;+ person: person&lt;/div&gt;&lt;div&gt;+ group: group&lt;/div&gt;" style="text;strokeColor=none;fillColor=none;align=left;verticalAlign=top;spacingLeft=4;spacingRight=4;overflow=hidden;rotatable=0;points=[[0,0.5],[1,0.5]];portConstraint=eastwest;whiteSpace=wrap;html=1;" vertex="1" parent="sWJx52MosCOyNt7yGAOG-52">
          <mxGeometry y="26" width="160" height="64" as="geometry" />
        </mxCell>
        <mxCell id="sWJx52MosCOyNt7yGAOG-54" value="" style="line;strokeWidth=1;fillColor=none;align=left;verticalAlign=middle;spacingTop=-1;spacingLeft=3;spacingRight=3;rotatable=0;labelPosition=right;points=[];portConstraint=eastwest;strokeColor=inherit;" vertex="1" parent="sWJx52MosCOyNt7yGAOG-52">
          <mxGeometry y="90" width="160" height="8" as="geometry" />
        </mxCell>
        <mxCell id="sWJx52MosCOyNt7yGAOG-56" value="" style="sketch=0;pointerEvents=1;shadow=0;dashed=0;html=1;strokeColor=none;fillColor=#505050;labelPosition=center;verticalLabelPosition=bottom;verticalAlign=top;outlineConnect=0;align=center;shape=mxgraph.office.sites.my_site;" vertex="1" parent="1">
          <mxGeometry x="30" y="500" width="120" height="100" as="geometry" />
        </mxCell>
        <mxCell id="sWJx52MosCOyNt7yGAOG-57" value="" style="sketch=0;pointerEvents=1;shadow=0;dashed=0;html=1;strokeColor=none;fillColor=#505050;labelPosition=center;verticalLabelPosition=bottom;verticalAlign=top;outlineConnect=0;align=center;shape=mxgraph.office.sites.my_site;" vertex="1" parent="1">
          <mxGeometry x="410" y="550" width="120" height="100" as="geometry" />
        </mxCell>
        <mxCell id="sWJx52MosCOyNt7yGAOG-58" value="" style="sketch=0;pointerEvents=1;shadow=0;dashed=0;html=1;strokeColor=none;fillColor=#505050;labelPosition=center;verticalLabelPosition=bottom;verticalAlign=top;outlineConnect=0;align=center;shape=mxgraph.office.sites.my_site;" vertex="1" parent="1">
          <mxGeometry x="670" y="520" width="120" height="100" as="geometry" />
        </mxCell>
        <mxCell id="sWJx52MosCOyNt7yGAOG-60" value="" style="sketch=0;pointerEvents=1;shadow=0;dashed=0;html=1;strokeColor=none;fillColor=#505050;labelPosition=center;verticalLabelPosition=bottom;verticalAlign=top;outlineConnect=0;align=center;shape=mxgraph.office.sites.website_public;" vertex="1" parent="1">
          <mxGeometry x="350" y="320" width="120" height="100" as="geometry" />
        </mxCell>
        <mxCell id="sWJx52MosCOyNt7yGAOG-61" value="" style="endArrow=classic;html=1;rounded=0;exitX=1.083;exitY=0.7;exitDx=0;exitDy=0;exitPerimeter=0;" edge="1" parent="1" source="sWJx52MosCOyNt7yGAOG-60" target="sWJx52MosCOyNt7yGAOG-58">
          <mxGeometry width="50" height="50" relative="1" as="geometry">
            <mxPoint x="450" y="370" as="sourcePoint" />
            <mxPoint x="700" y="530" as="targetPoint" />
          </mxGeometry>
        </mxCell>
        <mxCell id="sWJx52MosCOyNt7yGAOG-62" value=".../sign-in [POST]" style="text;html=1;align=center;verticalAlign=middle;whiteSpace=wrap;rounded=0;" vertex="1" parent="1">
          <mxGeometry x="370" y="286" width="60" height="30" as="geometry" />
        </mxCell>
        <mxCell id="sWJx52MosCOyNt7yGAOG-63" value="json:{&lt;div&gt;&quot;student&quot;: {&quot;id&quot;: 1},&lt;br&gt;  &quot;role&quot;: &quot;student&quot;&lt;br&gt;}&lt;/div&gt;" style="text;html=1;align=center;verticalAlign=middle;whiteSpace=wrap;rounded=0;" vertex="1" parent="1">
          <mxGeometry x="580" y="400" width="140" height="90" as="geometry" />
        </mxCell>
        <mxCell id="sWJx52MosCOyNt7yGAOG-64" value="" style="endArrow=classic;html=1;rounded=0;" edge="1" parent="1" source="sWJx52MosCOyNt7yGAOG-60" target="sWJx52MosCOyNt7yGAOG-57">
          <mxGeometry width="50" height="50" relative="1" as="geometry">
            <mxPoint x="490" y="400" as="sourcePoint" />
            <mxPoint x="632" y="550" as="targetPoint" />
          </mxGeometry>
        </mxCell>
        <mxCell id="sWJx52MosCOyNt7yGAOG-65" value="" style="endArrow=classic;html=1;rounded=0;" edge="1" parent="1" source="sWJx52MosCOyNt7yGAOG-60" target="sWJx52MosCOyNt7yGAOG-56">
          <mxGeometry width="50" height="50" relative="1" as="geometry">
            <mxPoint x="420" y="430" as="sourcePoint" />
            <mxPoint x="420" y="550" as="targetPoint" />
          </mxGeometry>
        </mxCell>
        <mxCell id="sWJx52MosCOyNt7yGAOG-67" value="json:{&lt;div&gt;&quot;user&quot;: {&quot;id&quot;: 1},&lt;br&gt;  &quot;role&quot;: &quot;admin&quot;&lt;br&gt;}&lt;/div&gt;" style="text;html=1;align=center;verticalAlign=middle;whiteSpace=wrap;rounded=0;" vertex="1" parent="1">
          <mxGeometry x="450" y="450" width="140" height="90" as="geometry" />
        </mxCell>
        <mxCell id="sWJx52MosCOyNt7yGAOG-68" value="json:{&lt;div&gt;&quot;teacher&quot;: {&quot;id&quot;: 1},&lt;br&gt;  &quot;role&quot;: &quot;teacher&quot;&lt;br&gt;}&lt;/div&gt;" style="text;html=1;align=center;verticalAlign=middle;whiteSpace=wrap;rounded=0;" vertex="1" parent="1">
          <mxGeometry x="50" y="410" width="140" height="90" as="geometry" />
        </mxCell>
        <mxCell id="sWJx52MosCOyNt7yGAOG-69" value=".../teacher_panel" style="text;html=1;align=center;verticalAlign=middle;whiteSpace=wrap;rounded=0;" vertex="1" parent="1">
          <mxGeometry x="20" y="585" width="60" height="30" as="geometry" />
        </mxCell>
        <mxCell id="sWJx52MosCOyNt7yGAOG-70" value=".../admin_panel" style="text;html=1;align=center;verticalAlign=middle;whiteSpace=wrap;rounded=0;" vertex="1" parent="1">
          <mxGeometry x="400" y="640" width="60" height="30" as="geometry" />
        </mxCell>
        <mxCell id="sWJx52MosCOyNt7yGAOG-71" value=".../student_panel" style="text;html=1;align=center;verticalAlign=middle;whiteSpace=wrap;rounded=0;" vertex="1" parent="1">
          <mxGeometry x="660" y="610" width="60" height="30" as="geometry" />
        </mxCell>
        <mxCell id="sWJx52MosCOyNt7yGAOG-73" value="" style="sketch=0;pointerEvents=1;shadow=0;dashed=0;html=1;strokeColor=none;fillColor=#505050;labelPosition=center;verticalLabelPosition=bottom;verticalAlign=top;outlineConnect=0;align=center;shape=mxgraph.office.sites.my_site;" vertex="1" parent="1">
          <mxGeometry x="250" y="530" width="120" height="100" as="geometry" />
        </mxCell>
        <mxCell id="sWJx52MosCOyNt7yGAOG-74" value="" style="endArrow=classic;html=1;rounded=0;" edge="1" parent="1" source="sWJx52MosCOyNt7yGAOG-60" target="sWJx52MosCOyNt7yGAOG-73">
          <mxGeometry width="50" height="50" relative="1" as="geometry">
            <mxPoint x="360" y="415" as="sourcePoint" />
            <mxPoint x="150" y="535" as="targetPoint" />
          </mxGeometry>
        </mxCell>
        <mxCell id="sWJx52MosCOyNt7yGAOG-75" value="json:{&lt;div&gt;&quot;employee&quot;: {&quot;id&quot;: 1},&lt;br&gt;  &quot;role&quot;: &quot;employee&quot;&lt;br&gt;}&lt;/div&gt;" style="text;html=1;align=center;verticalAlign=middle;whiteSpace=wrap;rounded=0;" vertex="1" parent="1">
          <mxGeometry x="230" y="440" width="140" height="90" as="geometry" />
        </mxCell>
        <mxCell id="sWJx52MosCOyNt7yGAOG-76" value=".../employee_panel" style="text;html=1;align=center;verticalAlign=middle;whiteSpace=wrap;rounded=0;" vertex="1" parent="1">
          <mxGeometry x="230" y="615" width="60" height="30" as="geometry" />
        </mxCell>
      </root>
    </mxGraphModel>
  </diagram>
</mxfile>
